<?xml version="1.0" standalone="no"?>
<!DOCTYPE svg PUBLIC "-//W3C//DTD SVG 20010904//EN"
 "http://www.w3.org/TR/2001/REC-SVG-20010904/DTD/svg10.dtd">
<svg version="1.0" xmlns="http://www.w3.org/2000/svg"
 width="300.000000pt" height="300.000000pt" viewBox="0 0 300.000000 300.000000"
 preserveAspectRatio="xMidYMid meet">
<metadata>
Created by potrace 1.10, written by Peter Selinger 2001-2011
</metadata>
<g transform="translate(0.000000,300.000000) scale(0.100000,-0.100000)"
fill="#000000" stroke="none">
<path d="M734 2817 c-13 -12 -56 -78 -96 -147 -39 -69 -106 -186 -148 -260
-43 -74 -109 -191 -149 -260 -39 -69 -80 -141 -92 -160 -63 -107 -94 -161
-120 -210 -17 -30 -52 -93 -79 -138 -44 -73 -50 -91 -50 -138 0 -46 6 -64 36
-111 19 -31 40 -65 45 -77 5 -12 18 -34 28 -51 54 -88 151 -259 151 -266 0 -5
4 -9 8 -9 4 0 14 -16 21 -35 7 -19 17 -35 22 -35 5 0 9 -5 9 -11 0 -10 30 -65
97 -177 23 -40 37 -64 72 -127 13 -22 30 -48 39 -57 8 -10 12 -18 9 -18 -5 0
53 -104 71 -125 4 -5 11 -19 15 -29 4 -11 29 -55 55 -99 33 -57 56 -83 77 -92
23 -10 200 -12 764 -11 l733 1 32 36 c17 20 44 61 59 90 15 30 47 87 70 126
23 40 71 123 106 185 36 62 93 160 127 218 34 58 75 128 91 157 47 85 142 252
204 357 57 96 59 101 59 171 0 54 -4 76 -16 86 -9 7 -20 22 -25 34 -6 11 -15
29 -22 40 -7 11 -25 43 -40 70 -15 28 -36 64 -46 80 -21 34 -23 39 -152 263
-52 90 -104 180 -115 200 -12 20 -34 60 -48 88 -15 29 -37 67 -49 85 -12 19
-35 59 -51 89 -15 30 -34 62 -41 70 -7 8 -29 47 -49 85 -21 39 -53 84 -71 102
l-34 32 -741 0 -741 -1 -25 -21z m1692 -304 c493 -855 564 -981 564 -1006 0
-16 -53 -119 -131 -254 -72 -126 -235 -408 -361 -628 -126 -220 -236 -406
-245 -412 -13 -10 -180 -13 -753 -13 -689 0 -738 1 -753 18 -8 9 -82 134 -165
277 -82 143 -238 415 -347 605 -109 190 -204 354 -211 365 -8 11 -14 29 -14
40 0 14 594 1062 728 1285 8 13 105 16 743 20 546 4 740 2 759 -7 19 -8 70
-89 186 -290z"/>
<path d="M1416 2459 c219 -127 421 -244 448 -260 26 -17 51 -27 54 -24 3 3 52
120 107 260 l101 255 -555 0 -555 0 400 -231z m654 179 c0 -13 -9 -42 -20 -65
-10 -24 -17 -43 -14 -43 2 0 -3 -15 -12 -32 -10 -18 -38 -87 -63 -153 -40
-103 -50 -120 -70 -123 -13 -2 -26 0 -30 5 -3 5 -26 21 -51 34 -25 14 -62 35
-82 47 -21 12 -55 32 -75 43 -21 12 -50 29 -65 38 -98 59 -228 131 -236 131
-6 0 -12 4 -14 8 -3 8 -124 82 -133 82 -9 0 -45 34 -45 42 0 5 205 8 455 8
l455 0 0 -22z"/>
<path d="M806 2048 c-21 -326 -40 -596 -43 -600 -2 -5 -1 -8 2 -8 3 0 237 139
518 308 282 170 519 313 528 318 13 7 -90 71 -467 289 -267 154 -488 281 -492
283 -4 1 -25 -264 -46 -590z m213 466 c64 -37 132 -78 153 -91 20 -13 59 -36
86 -51 28 -15 88 -49 134 -76 45 -27 99 -57 118 -68 19 -10 53 -30 75 -43 22
-14 47 -28 55 -32 24 -11 120 -73 120 -78 0 -7 -119 -84 -229 -147 -58 -34
-124 -73 -146 -88 -22 -15 -67 -42 -100 -60 -33 -18 -62 -36 -65 -40 -3 -3
-31 -21 -63 -39 -33 -18 -77 -45 -99 -62 -23 -16 -46 -29 -52 -29 -6 0 -31
-14 -56 -31 -62 -42 -141 -82 -148 -74 -3 3 0 90 7 193 8 103 15 215 16 249 7
147 31 489 41 581 4 38 10 52 21 52 9 0 68 -30 132 -66z"/>
<path d="M2130 2359 c-52 -133 -96 -245 -98 -249 -1 -4 125 -81 280 -170 156
-90 318 -186 362 -212 43 -27 80 -47 81 -46 1 2 -77 141 -174 309 -97 168
-214 373 -261 457 -47 83 -87 151 -90 152 -3 0 -48 -109 -100 -241z m140 124
c11 -21 31 -56 44 -78 13 -22 40 -71 61 -110 20 -38 40 -72 44 -75 3 -3 14
-21 23 -40 22 -44 52 -96 65 -112 6 -7 24 -38 40 -68 17 -30 52 -92 78 -138
26 -46 45 -85 43 -88 -5 -4 -63 25 -133 66 -22 13 -49 28 -60 34 -11 6 -31 19
-45 28 -14 9 -48 29 -76 45 -171 94 -276 157 -281 169 -4 12 22 97 47 149 5
11 23 56 40 100 50 129 63 155 77 155 7 0 22 -17 33 -37z"/>
<path d="M678 2438 c-14 -29 -134 -241 -267 -472 -133 -230 -241 -420 -239
-421 2 -2 108 -34 236 -72 227 -69 232 -70 232 -48 0 39 59 947 66 1008 3 31
4 57 2 57 -2 0 -15 -24 -30 -52z m-13 -210 c-3 -57 -8 -132 -10 -168 -13 -186
-25 -366 -30 -455 -3 -55 -8 -114 -11 -131 l-6 -32 -46 13 c-26 8 -87 25 -137
40 -49 15 -112 33 -139 41 -28 8 -54 18 -60 24 -10 10 29 100 69 155 12 17 37
59 57 95 20 36 48 88 63 115 15 28 36 61 45 75 9 14 49 82 88 153 76 137 102
176 115 177 5 0 6 -46 2 -102z"/>
<path d="M2010 1578 c0 -216 -3 -499 -7 -627 l-6 -235 319 300 c176 164 363
340 416 389 l96 90 -377 218 c-207 119 -391 227 -408 238 l-33 21 0 -394z
m120 292 c49 -30 121 -72 239 -140 74 -43 248 -143 261 -151 8 -5 43 -25 78
-45 34 -19 62 -40 62 -44 0 -12 -399 -396 -584 -561 -27 -24 -67 -61 -90 -81
-22 -21 -47 -38 -54 -38 -12 0 -13 91 -8 540 3 297 8 545 11 550 6 9 40 -3 85
-30z"/>
<path d="M1430 1689 c-245 -148 -482 -290 -527 -316 -45 -27 -82 -50 -82 -53
0 -7 1050 -633 1054 -628 5 5 10 1268 5 1267 -3 0 -205 -122 -450 -270z m426
-336 c-3 -302 -6 -560 -6 -575 0 -35 -20 -36 -69 -5 -56 35 -74 45 -101 59
-14 7 -39 23 -56 35 -17 13 -36 23 -42 23 -7 0 -12 4 -12 9 0 5 -15 14 -32 22
-18 7 -46 22 -63 33 -44 31 -67 45 -95 58 -14 7 -27 15 -30 18 -3 3 -27 19
-55 35 -27 17 -59 35 -70 42 -11 7 -27 15 -35 19 -8 4 -34 20 -57 36 -23 15
-44 28 -47 28 -3 0 -37 20 -76 45 -39 25 -72 45 -75 45 -10 0 -45 35 -45 45 0
6 30 28 68 50 37 21 85 51 107 65 22 15 65 41 95 57 30 17 91 54 135 82 44 27
105 63 135 80 30 16 96 55 145 87 119 75 257 153 273 154 11 0 13 -96 8 -547z"/>
<path d="M210 1393 c0 -5 4 -13 9 -18 11 -12 453 -780 466 -810 17 -40 14 13
-18 359 l-32 349 -190 57 c-104 31 -200 60 -212 64 -13 4 -23 3 -23 -1z m122
-57 c29 -8 67 -19 83 -24 17 -6 63 -20 103 -33 47 -14 78 -30 86 -43 8 -12 19
-86 26 -166 6 -80 13 -163 15 -185 13 -148 14 -174 6 -180 -9 -5 -81 106 -81
124 0 5 -6 14 -14 20 -8 7 -24 31 -35 54 -12 23 -37 69 -57 102 -19 33 -37 68
-41 78 -3 9 -9 17 -14 17 -5 0 -9 5 -9 11 0 6 -25 53 -55 104 -30 50 -55 97
-55 103 0 7 -4 12 -10 12 -5 0 -10 5 -10 10 0 13 -1 13 62 -4z"/>
<path d="M773 1158 c3 -24 20 -216 38 -428 l33 -385 436 118 c239 65 450 121
468 125 32 7 10 21 -458 301 -270 162 -493 298 -496 303 -3 4 -10 8 -16 8 -7
0 -9 -15 -5 -42z m84 -40 c21 -11 47 -26 58 -32 11 -6 34 -20 50 -32 17 -11
37 -24 45 -27 8 -4 33 -18 55 -32 22 -13 56 -34 75 -45 19 -11 53 -31 75 -45
37 -23 88 -53 139 -82 11 -7 28 -17 36 -23 9 -6 44 -28 78 -48 170 -102 222
-134 222 -141 0 -12 -121 -49 -265 -81 -22 -5 -53 -13 -68 -19 -16 -6 -61 -18
-100 -27 -40 -9 -79 -20 -88 -25 -9 -4 -31 -11 -50 -14 -19 -3 -63 -14 -99
-24 -130 -38 -139 -40 -148 -27 -5 6 -15 74 -21 151 -13 154 -19 219 -26 297
-2 29 -7 87 -11 128 -3 41 -7 93 -9 115 -3 36 0 55 10 55 3 0 21 -10 42 -22z"/>
<path d="M2628 1143 c-34 -39 -365 -354 -558 -530 l-44 -41 69 -77 c39 -43 79
-88 90 -102 l20 -25 122 214 c67 117 171 297 231 401 105 178 123 220 70 160z
m-153 -250 c-25 -47 -77 -140 -116 -207 -39 -66 -89 -151 -111 -188 -21 -38
-43 -68 -48 -68 -10 0 -93 86 -118 122 -16 21 -13 25 99 131 62 60 145 136
182 170 38 34 85 78 105 98 21 20 40 34 45 32 4 -2 -13 -43 -38 -90z"/>
<path d="M1715 450 c-99 -28 -236 -64 -305 -81 -69 -18 -128 -35 -132 -38 -4
-3 173 -6 392 -6 220 0 400 2 400 4 0 13 -148 170 -160 170 -8 0 -96 -22 -195
-49z m240 -27 c25 -26 44 -52 42 -58 -2 -6 -92 -10 -249 -10 -136 0 -244 3
-241 8 2 4 12 7 21 7 9 0 37 7 62 16 25 9 88 27 140 41 52 13 109 28 125 33
49 13 52 12 100 -37z"/>
</g>
</svg>
